<svg xmlns="http://www.w3.org/2000/svg" xml:space="preserve" id="Calque_1" x="0" y="0" style="enable-background:new 0 0 841.9 595.3" version="1.1" viewBox="0 0 841.9 595.3"><style>.st1{fill:#010202}.st2{fill:#00b8de}</style><path d="M121.7 95.8h583.1v396.5H121.7z" style="fill:none"/><path d="M193.7 313.2v32.7h-7.2v-32.7h7.2zM209.8 313.2l7.6 22.5h.1l7.2-22.5h10.1v32.7h-6.7v-23.2h-.1l-8 23.2h-5.5l-8-22.9h-.1v22.9h-6.7v-32.7h10.1zM238.1 319.3v-6h26.8v6H255v26.6h-7.2v-26.6h-9.7zM297.6 313.2l12.2 32.7h-7.5l-2.5-7.3h-12.2l-2.6 7.3h-7.2l12.4-32.7h7.4zm.4 20.1-4.1-12h-.1l-4.3 12h8.5zM323.9 322.2v4.3h-4.8v11.7c0 1.1.2 1.8.5 2.2s1.1.5 2.2.5h1.1c.3 0 .7-.1 1-.1v5c-.5.1-1.2.2-1.8.2h-2c-1 0-2-.1-2.9-.2-.9-.1-1.7-.4-2.4-.8s-1.2-1-1.6-1.7c-.4-.7-.6-1.7-.6-2.9v-14h-3.9v-4.3h3.9V315h6.5v7.1h4.8zM333.8 313.2v32.7h-6.5v-32.7h6.5zM338.5 329.5c.1-1.5.5-2.8 1.1-3.8.7-1 1.5-1.8 2.6-2.4 1-.6 2.2-1 3.5-1.3 1.3-.3 2.6-.4 3.9-.4 1.2 0 2.4.1 3.6.3 1.2.2 2.3.5 3.3 1s1.8 1.2 2.5 2 1 2 1 3.5v12.3c0 1.1.1 2.1.2 3.1s.3 1.7.6 2.2h-6.6c-.1-.4-.2-.7-.3-1.1-.1-.4-.1-.8-.2-1.2-1 1.1-2.3 1.8-3.7 2.2-1.4.4-2.8.6-4.3.6-1.1 0-2.2-.1-3.2-.4-1-.3-1.8-.7-2.6-1.3-.7-.6-1.3-1.3-1.7-2.2-.4-.9-.6-1.9-.6-3.2 0-1.3.2-2.4.7-3.3s1.1-1.6 1.8-2.1 1.6-.9 2.6-1.2c1-.3 1.9-.5 2.9-.6 1-.2 1.9-.3 2.9-.4.9-.1 1.8-.2 2.5-.4s1.3-.5 1.7-.8c.4-.4.6-.9.6-1.5 0-.7-.1-1.3-.3-1.7-.2-.4-.5-.7-.9-1-.4-.2-.8-.4-1.3-.5-.5-.1-1-.1-1.6-.1-1.3 0-2.3.3-3 .8s-1.2 1.5-1.3 2.7h-6.4zm15.1 4.8c-.3.2-.6.4-1 .6-.4.1-.9.3-1.3.3-.5.1-1 .2-1.5.2-.5.1-1 .1-1.6.2-.5.1-1 .2-1.4.4-.5.2-.9.4-1.2.6-.4.3-.6.6-.8 1-.2.4-.3.9-.3 1.5s.1 1.1.3 1.5c.2.4.5.7.9.9s.8.4 1.3.5c.5.1 1 .1 1.5.1 1.3 0 2.3-.2 3-.6.7-.4 1.2-.9 1.6-1.5.3-.6.5-1.2.6-1.8.1-.6.1-1.1.1-1.5v-2.4zM371.2 322.2v3.3h.1c.8-1.4 1.9-2.4 3.2-3 1.3-.6 2.7-.9 4-.9 1.7 0 3.2.2 4.3.7 1.1.5 2 1.1 2.6 2 .6.8 1.1 1.9 1.4 3.1.3 1.2.4 2.5.4 4V346h-6.5v-13.4c0-2-.3-3.4-.9-4.4-.6-1-1.7-1.4-3.2-1.4-1.8 0-3.1.5-3.8 1.6-.8 1.1-1.2 2.8-1.2 5.2V346H365v-23.7h6.2zM404.8 322.2v4.3H400v11.7c0 1.1.2 1.8.5 2.2s1.1.5 2.2.5h1.1c.3 0 .7-.1 1-.1v5c-.5.1-1.2.2-1.8.2h-2c-1 0-2-.1-2.9-.2-.9-.1-1.7-.4-2.4-.8s-1.2-1-1.6-1.7c-.4-.7-.6-1.7-.6-2.9v-14h-3.9v-4.3h3.9V315h6.5v7.1h4.8zM408.2 318.6v-5.4h6.5v5.4h-6.5zm6.5 3.6v23.7h-6.5v-23.7h6.5zM436.3 354.2v-11.3h-.1c-.8 1.3-1.8 2.2-3.2 2.7-1.4.5-2.8.8-4.3.8-1.1 0-2.2-.2-3.4-.6-1.2-.4-2.2-1.1-3.2-2.1s-1.8-2.2-2.4-3.8c-.6-1.6-1-3.5-1-5.8 0-1.6.2-3.2.6-4.7.4-1.5 1.1-2.9 2-4.1.9-1.2 2-2.1 3.3-2.8 1.3-.7 2.9-1.1 4.7-1.1 1.5 0 2.8.3 4.1.8 1.3.6 2.3 1.5 3 2.8h.1v-3h6.2v31.9h-6.4zm-10.8-17.3c.2.9.5 1.7.9 2.4s1 1.3 1.7 1.7c.7.4 1.6.6 2.7.6s2-.2 2.7-.6c.7-.4 1.3-1 1.7-1.6s.8-1.5 1-2.4c.2-.9.3-1.8.3-2.8 0-.9-.1-1.8-.3-2.7-.2-.9-.5-1.7-.9-2.5-.4-.7-1-1.3-1.7-1.8s-1.6-.7-2.6-.7c-1.1 0-2 .2-2.7.6-.7.4-1.3 1-1.8 1.7s-.8 1.5-1 2.4c-.2.9-.3 1.8-.3 2.8 0 1 .1 2 .3 2.9zM463.6 345.9v-3.3h-.1c-.8 1.4-1.9 2.4-3.2 3-1.3.6-2.7.9-4 .9-1.7 0-3.2-.2-4.3-.7-1.1-.5-2-1.1-2.6-1.9-.6-.8-1.1-1.9-1.4-3.1-.3-1.2-.4-2.5-.4-4v-14.6h6.5v13.4c0 2 .3 3.4.9 4.4.6 1 1.7 1.4 3.2 1.4 1.8 0 3.1-.5 3.8-1.6.8-1.1 1.2-2.8 1.2-5.2v-12.4h6.5v23.7h-6.1zM481.7 340.2c1 .9 2.4 1.4 4.2 1.4 1.3 0 2.4-.3 3.4-1 .9-.7 1.5-1.4 1.7-2.1h5.7c-.9 2.8-2.3 4.9-4.2 6.1-1.9 1.2-4.2 1.8-6.9 1.8-1.9 0-3.5-.3-5-.9-1.5-.6-2.8-1.4-3.8-2.5s-1.8-2.4-2.4-3.9c-.6-1.5-.8-3.2-.8-5 0-1.8.3-3.4.9-4.9.6-1.5 1.4-2.8 2.5-4 1.1-1.1 2.3-2 3.8-2.6 1.5-.6 3.1-1 4.9-1 2 0 3.8.4 5.3 1.2 1.5.8 2.7 1.8 3.7 3.1s1.7 2.8 2.1 4.5c.4 1.7.6 3.4.5 5.3h-17.1c-.1 2 .5 3.6 1.5 4.5zm7.3-12.4c-.8-.9-2-1.3-3.5-1.3-1 0-1.9.2-2.6.5-.7.4-1.2.8-1.6 1.3-.4.5-.7 1.1-.9 1.6-.2.6-.3 1.1-.3 1.6h10.6c-.4-1.6-.9-2.9-1.7-3.7zM186.5 361.8h10.9c3 0 5.1.9 6.3 2.6.7 1 1.1 2.2 1.1 3.6 0 1.6-.5 2.9-1.4 3.9-.5.5-1.1 1-2 1.5 1.3.5 2.2 1 2.9 1.7 1.1 1.1 1.7 2.6 1.7 4.5 0 1.6-.5 3.1-1.5 4.4-1.5 2-3.9 2.9-7.3 2.9h-10.7v-25.1zm9.6 10.6c1.5 0 2.6-.2 3.4-.6 1.3-.6 1.9-1.8 1.9-3.4 0-1.6-.7-2.7-2-3.3-.8-.3-1.9-.5-3.4-.5h-6.1v7.8h6.2zm1.2 11.6c2.1 0 3.6-.6 4.5-1.8.6-.8.8-1.7.8-2.8 0-1.8-.8-3.1-2.5-3.7-.9-.4-2-.5-3.5-.5h-6.8v8.8h7.5zM209.4 368.6h2.9v3.2c.2-.6.8-1.4 1.8-2.2.9-.9 2-1.3 3.2-1.3h.3c.1 0 .4 0 .7.1v3.2c-.2 0-.4-.1-.5-.1h-.5c-1.5 0-2.7.5-3.6 1.5-.8 1-1.2 2.1-1.2 3.4v10.5h-3.1v-18.3zM231.8 369.1c1.2.6 2.1 1.4 2.8 2.4.6.9 1 2 1.2 3.2.2.8.3 2.2.3 4h-13.3c.1 1.9.5 3.4 1.3 4.5s2.1 1.7 3.8 1.7c1.6 0 2.9-.5 3.8-1.6.5-.6.9-1.3 1.1-2.1h3c-.1.7-.3 1.4-.8 2.2-.5.8-1 1.5-1.5 2-.9.9-2.1 1.5-3.4 1.8-.7.2-1.6.3-2.5.3-2.3 0-4.2-.8-5.8-2.5-1.6-1.7-2.4-4-2.4-7 0-2.9.8-5.3 2.4-7.2 1.6-1.8 3.7-2.8 6.2-2.8 1.3.2 2.5.5 3.8 1.1zm1.1 7.2c-.1-1.3-.4-2.4-.9-3.2-.8-1.5-2.2-2.2-4.2-2.2-1.4 0-2.6.5-3.5 1.5-.9 1-1.5 2.3-1.5 3.9h10.1zM240 363.5h3.1v5.1h2.9v2.5h-2.9V383c0 .6.2 1.1.6 1.3.2.1.6.2 1.2.2h.5c.2 0 .4 0 .6-.1v2.4c-.4.1-.7.2-1.1.2-.4 0-.8.1-1.2.1-1.4 0-2.4-.4-2.9-1.1-.5-.7-.8-1.7-.8-2.9V371h-2.5v-2.5h2.5v-5zM258.6 375.8c.7-.1 1.2-.4 1.4-.9.1-.3.2-.7.2-1.2 0-1.1-.4-1.8-1.1-2.3s-1.8-.7-3.2-.7c-1.6 0-2.7.4-3.4 1.3-.4.5-.6 1.2-.7 2.1h-2.9c.1-2.3.8-3.8 2.2-4.7 1.4-.9 3-1.3 4.9-1.3 2.2 0 3.9.4 5.2 1.2 1.3.8 2 2.1 2 3.8v10.5c0 .3.1.6.2.8s.4.3.8.3h.5c.2 0 .4 0 .5-.1v2.3c-.5.1-.8.2-1.1.3-.3 0-.6.1-1 .1-1.1 0-1.8-.4-2.3-1.1-.3-.4-.4-1-.5-1.7-.6.8-1.5 1.5-2.7 2.1-1.2.6-2.5.9-3.9.9-1.7 0-3.1-.5-4.2-1.5s-1.6-2.3-1.6-3.9c0-1.7.5-3 1.6-3.9s2.4-1.5 4.2-1.7l4.9-.7zm-6.5 8.3c.6.5 1.4.8 2.3.8 1.1 0 2.1-.2 3.1-.8 1.7-.8 2.6-2.2 2.6-4.1v-2.5c-.4.2-.9.4-1.4.6s-1.2.3-1.7.3l-1.9.2c-1.1.1-2 .4-2.5.7-1 .5-1.4 1.4-1.4 2.6 0 1 .3 1.7.9 2.2zM277.9 369.3c.6.4 1.2 1 1.8 1.7v-2.3h2.8v16.6c0 2.3-.3 4.2-1 5.5-1.3 2.5-3.7 3.7-7.2 3.7-2 0-3.6-.4-5-1.3s-2.1-2.3-2.2-4.1h3.1c.1.8.4 1.5.9 1.9.7.7 1.8 1 3.3 1 2.3 0 3.9-.8 4.6-2.5.4-1 .6-2.7.6-5.2-.6.9-1.4 1.6-2.2 2.1-.9.5-2 .7-3.4.7-2 0-3.7-.7-5.2-2.1-1.5-1.4-2.2-3.7-2.2-7 0-3.1.7-5.5 2.2-7.2 1.5-1.7 3.3-2.6 5.4-2.6 1.4.1 2.7.4 3.7 1.1zm.4 3.3c-.9-1.1-2.1-1.6-3.6-1.6-2.2 0-3.6 1-4.4 3-.4 1.1-.6 2.5-.6 4.3 0 2.1.4 3.6 1.2 4.7.8 1.1 2 1.6 3.4 1.6 2.2 0 3.7-1 4.6-3 .5-1.1.7-2.4.7-3.9.1-2.3-.4-4-1.3-5.1zM286.7 368.6h2.9v2.6c.9-1.1 1.8-1.8 2.8-2.3 1-.5 2-.7 3.2-.7 2.6 0 4.4.9 5.3 2.7.5 1 .8 2.4.8 4.3v11.7h-3.1v-11.5c0-1.1-.2-2-.5-2.7-.5-1.1-1.5-1.7-3-1.7-.7 0-1.3.1-1.8.2-.8.3-1.6.8-2.2 1.5-.5.6-.8 1.2-1 1.9-.2.6-.2 1.6-.2 2.8v9.6h-3.1v-18.4zM317.1 369.1c1.2.6 2.1 1.4 2.8 2.4.6.9 1 2 1.2 3.2.2.8.3 2.2.3 4H308c.1 1.9.5 3.4 1.3 4.5s2.1 1.7 3.8 1.7c1.6 0 2.9-.5 3.8-1.6.5-.6.9-1.3 1.1-2.1h3c-.1.7-.3 1.4-.8 2.2-.5.8-1 1.5-1.5 2-.9.9-2.1 1.5-3.4 1.8-.7.2-1.6.3-2.5.3-2.3 0-4.2-.8-5.8-2.5-1.6-1.7-2.4-4-2.4-7 0-2.9.8-5.3 2.4-7.2 1.6-1.8 3.7-2.8 6.2-2.8 1.4.2 2.7.5 3.9 1.1zm1.1 7.2c-.1-1.3-.4-2.4-.9-3.2-.8-1.5-2.2-2.2-4.2-2.2-1.4 0-2.6.5-3.5 1.5-.9 1-1.5 2.3-1.5 3.9h10.1zM326.9 375.6h8.6v3.2h-8.6v-3.2zM342.5 361.8h11.2c2.2 0 4 .6 5.4 1.9 1.4 1.3 2 3 2 5.3 0 2-.6 3.7-1.8 5.1-1.2 1.5-3.1 2.2-5.6 2.2h-7.8v10.6h-3.4v-25.1zm13.2 3.4c-.7-.4-1.8-.5-3.1-.5h-6.7v8.7h6.7c1.5 0 2.7-.3 3.7-1 .9-.6 1.4-1.8 1.4-3.4 0-1.8-.6-3.1-2-3.8zM372.6 375.8c.7-.1 1.2-.4 1.4-.9.1-.3.2-.7.2-1.2 0-1.1-.4-1.8-1.1-2.3s-1.8-.7-3.2-.7c-1.6 0-2.7.4-3.4 1.3-.4.5-.6 1.2-.7 2.1h-2.9c.1-2.3.8-3.8 2.2-4.7 1.4-.9 3-1.3 4.9-1.3 2.2 0 3.9.4 5.2 1.2 1.3.8 2 2.1 2 3.8v10.5c0 .3.1.6.2.8s.4.3.8.3h.5c.2 0 .4 0 .5-.1v2.3c-.5.1-.8.2-1.1.3-.3 0-.6.1-1 .1-1.1 0-1.8-.4-2.3-1.1-.3-.4-.4-1-.5-1.7-.6.8-1.5 1.5-2.7 2.1-1.2.6-2.5.9-3.9.9-1.7 0-3.1-.5-4.2-1.5s-1.6-2.3-1.6-3.9c0-1.7.5-3 1.6-3.9s2.4-1.5 4.2-1.7l4.9-.7zm-6.5 8.3c.6.5 1.4.8 2.3.8 1.1 0 2.1-.2 3.1-.8 1.7-.8 2.6-2.2 2.6-4.1v-2.5c-.4.2-.9.4-1.4.6s-1.2.3-1.7.3l-1.9.2c-1.1.1-2 .4-2.5.7-1 .5-1.4 1.4-1.4 2.6-.1 1 .2 1.7.9 2.2zM392.5 368.6h3.4c-.4 1.2-1.4 3.9-2.9 8-1.1 3.1-2.1 5.7-2.8 7.7-1.8 4.7-3 7.5-3.8 8.5-.7 1-2 1.5-3.8 1.5-.4 0-.8 0-1-.1s-.5-.1-.9-.2v-2.8c.5.1.9.2 1.2.3.2 0 .4.1.6.1.6 0 1-.1 1.3-.3.3-.2.5-.4.7-.7.1-.1.3-.6.6-1.4.4-.8.6-1.5.8-1.9l-6.8-18.8h3.5l4.9 14.9 5-14.8zM399.7 381.2c.1 1 .4 1.8.8 2.4.8 1 2.2 1.5 4.1 1.5 1.2 0 2.2-.2 3.1-.7.9-.5 1.3-1.3 1.3-2.3 0-.8-.4-1.4-1.1-1.8-.5-.2-1.3-.5-2.7-.9l-2.5-.6c-1.6-.4-2.8-.8-3.5-1.3-1.3-.8-2-2-2-3.5 0-1.7.6-3.1 1.9-4.2 1.3-1.1 3-1.6 5.1-1.6 2.8 0 4.8.8 6 2.4.8 1 1.1 2.1 1.1 3.3h-2.9c-.1-.7-.3-1.3-.8-1.9-.7-.8-2-1.2-3.8-1.2-1.2 0-2.1.2-2.7.7s-.9 1-.9 1.8.4 1.4 1.2 1.9c.5.3 1.1.5 2.1.8l2.1.5c2.3.5 3.8 1.1 4.5 1.6 1.2.8 1.8 2 1.8 3.7 0 1.6-.6 3-1.9 4.2-1.3 1.2-3.2 1.8-5.7 1.8-2.8 0-4.7-.6-5.9-1.9-1.1-1.2-1.8-2.8-1.8-4.6h3.1zM435.2 369.2c.5.3 1.2.9 1.9 1.8v-9.2h3V387h-2.8v-2.5c-.7 1.1-1.6 1.9-2.5 2.4-1 .5-2.1.8-3.4.8-2 0-3.8-.9-5.3-2.6-1.5-1.7-2.2-4-2.2-6.8 0-2.7.7-5 2-6.9 1.4-2 3.3-2.9 5.8-2.9 1.4-.2 2.5.1 3.5.7zm-6.9 13.7c.8 1.3 2.2 2 4 2 1.4 0 2.6-.6 3.5-1.8.9-1.2 1.4-3 1.4-5.3s-.5-4-1.4-5.1c-.9-1.1-2.1-1.7-3.5-1.7-1.5 0-2.8.6-3.7 1.8-1 1.2-1.4 2.9-1.4 5.2-.1 1.9.3 3.6 1.1 4.9zM455.5 369.1c1.2.6 2.1 1.4 2.8 2.4.6.9 1 2 1.2 3.2.2.8.3 2.2.3 4h-13.3c.1 1.9.5 3.4 1.3 4.5s2.1 1.7 3.8 1.7c1.6 0 2.9-.5 3.8-1.6.5-.6.9-1.3 1.1-2.1h3c-.1.7-.3 1.4-.8 2.2-.5.8-1 1.5-1.5 2-.9.9-2.1 1.5-3.4 1.8-.7.2-1.6.3-2.5.3-2.3 0-4.2-.8-5.8-2.5-1.6-1.7-2.4-4-2.4-7 0-2.9.8-5.3 2.4-7.2 1.6-1.8 3.7-2.8 6.2-2.8 1.4.2 2.6.5 3.8 1.1zm1.2 7.2c-.1-1.3-.4-2.4-.9-3.2-.8-1.5-2.2-2.2-4.2-2.2-1.4 0-2.6.5-3.5 1.5-.9 1-1.5 2.3-1.5 3.9h10.1zM473.5 361.8h3.1v25.1h-3.1v-25.1zM490.5 375.8c.7-.1 1.2-.4 1.4-.9.1-.3.2-.7.2-1.2 0-1.1-.4-1.8-1.1-2.3-.7-.5-1.8-.7-3.2-.7-1.6 0-2.7.4-3.4 1.3-.4.5-.6 1.2-.7 2.1h-2.9c.1-2.3.8-3.8 2.2-4.7 1.4-.9 3-1.3 4.9-1.3 2.2 0 3.9.4 5.2 1.2 1.3.8 2 2.1 2 3.8v10.5c0 .3.1.6.2.8s.4.3.8.3h.5c.2 0 .4 0 .5-.1v2.3c-.5.1-.8.2-1.1.3-.2 0-.6.1-1 .1-1.1 0-1.8-.4-2.3-1.1-.3-.4-.4-1-.5-1.7-.6.8-1.5 1.5-2.7 2.1-1.2.6-2.5.9-3.9.9-1.7 0-3.1-.5-4.2-1.5s-1.6-2.3-1.6-3.9c0-1.7.5-3 1.6-3.9 1.1-.9 2.5-1.5 4.2-1.7l4.9-.7zm-6.5 8.3c.7.5 1.4.8 2.3.8 1.1 0 2.1-.2 3.1-.8 1.7-.8 2.6-2.2 2.6-4.1v-2.5c-.4.2-.9.4-1.4.6-.6.2-1.2.3-1.7.3l-1.9.2c-1.1.1-2 .4-2.5.7-1 .5-1.4 1.4-1.4 2.6 0 1 .3 1.7.9 2.2zM510.3 361.8h3.4v22.1h12.6v3h-16v-25.1zM541.5 370.4c1.6 1.6 2.4 3.9 2.4 6.9 0 2.9-.7 5.4-2.1 7.3-1.4 1.9-3.6 2.9-6.6 2.9-2.5 0-4.5-.9-6-2.6-1.5-1.7-2.2-4-2.2-6.9 0-3.1.8-5.5 2.3-7.3s3.6-2.7 6.2-2.7c2.4.1 4.4.8 6 2.4zm-1.9 12.2c.7-1.5 1.1-3.3 1.1-5.1 0-1.7-.3-3.1-.8-4.2-.9-1.7-2.3-2.5-4.4-2.5-1.9 0-3.2.7-4.1 2.2s-1.3 3.2-1.3 5.2c0 1.9.4 3.6 1.3 4.9s2.2 1.9 4 1.9c2.1-.1 3.4-.9 4.2-2.4zM547.3 361.8h3.1v3.5h-3.1v-3.5zm0 6.9h3.1v18.2h-3.1v-18.2zM554.7 368.6h2.9v3.2c.2-.6.8-1.4 1.8-2.2.9-.9 2-1.3 3.2-1.3h.3c.1 0 .4 0 .7.1v3.2c-.2 0-.4-.1-.5-.1h-.5c-1.5 0-2.7.5-3.6 1.5-.8 1-1.2 2.1-1.2 3.4v10.5h-3.1v-18.3zM577 369.1c1.2.6 2.1 1.4 2.8 2.4.6.9 1 2 1.2 3.2.2.8.3 2.2.3 4H568c.1 1.9.5 3.4 1.3 4.5s2.1 1.7 3.8 1.7c1.6 0 2.9-.5 3.8-1.6.5-.6.9-1.3 1.1-2.1h3c-.1.7-.3 1.4-.8 2.2-.5.8-1 1.5-1.5 2-.9.9-2.1 1.5-3.4 1.8-.7.2-1.6.3-2.5.3-2.3 0-4.2-.8-5.8-2.5-1.6-1.7-2.4-4-2.4-7 0-2.9.8-5.3 2.4-7.2 1.6-1.8 3.7-2.8 6.2-2.8 1.3.2 2.6.5 3.8 1.1zm1.1 7.2c-.1-1.3-.4-2.4-.9-3.2-.8-1.5-2.2-2.2-4.2-2.2-1.4 0-2.6.5-3.5 1.5-.9 1-1.5 2.3-1.5 3.9h10.1zM186.5 402.8h18.2v3.1h-14.9v7.6h13.8v2.9h-13.8v8.5H205v3h-18.5v-25.1zm13.2-6.9-4.6 4.9h-2.4l3.1-4.9h3.9zM220.3 410.6c1.3 1 2.1 2.7 2.3 5.2h-3c-.2-1.1-.6-2.1-1.2-2.8s-1.7-1.1-3.1-1.1c-2 0-3.4 1-4.2 2.9-.5 1.2-.8 2.8-.8 4.6 0 1.8.4 3.4 1.2 4.6.8 1.3 2 1.9 3.7 1.9 1.3 0 2.3-.4 3-1.2.7-.8 1.3-1.8 1.5-3.2h3c-.3 2.4-1.2 4.2-2.6 5.3s-3.1 1.7-5.2 1.7c-2.4 0-4.3-.9-5.7-2.6-1.4-1.7-2.1-3.9-2.1-6.6 0-3.2.8-5.7 2.3-7.5 1.6-1.8 3.5-2.7 6-2.7 1.9 0 3.6.5 4.9 1.5zM239 411.4c1.6 1.6 2.4 3.9 2.4 6.9 0 2.9-.7 5.4-2.1 7.3-1.4 1.9-3.6 2.9-6.6 2.9-2.5 0-4.5-.9-6-2.6-1.5-1.7-2.2-4-2.2-6.9 0-3.1.8-5.5 2.3-7.3s3.6-2.7 6.2-2.7c2.4.1 4.4.8 6 2.4zm-1.9 12.2c.7-1.5 1.1-3.3 1.1-5.1 0-1.7-.3-3.1-.8-4.2-.9-1.7-2.3-2.5-4.4-2.5-1.9 0-3.2.7-4.1 2.2-.8 1.4-1.3 3.2-1.3 5.2 0 1.9.4 3.6 1.3 4.9.8 1.3 2.2 1.9 4 1.9 2-.1 3.4-.9 4.2-2.4zM244.8 402.8h3.1v25.1h-3.1v-25.1zM263.5 410.1c1.2.6 2.1 1.4 2.8 2.4.6.9 1 2 1.2 3.2.2.8.3 2.2.3 4h-13.3c.1 1.9.5 3.4 1.3 4.5s2.1 1.7 3.8 1.7c1.6 0 2.9-.5 3.8-1.6.5-.6.9-1.3 1.1-2.1h3c-.1.7-.3 1.4-.8 2.2-.5.8-1 1.5-1.5 2-.9.9-2.1 1.5-3.4 1.8-.7.2-1.6.3-2.5.3-2.3 0-4.2-.8-5.8-2.5-1.6-1.7-2.4-4-2.4-7 0-2.9.8-5.3 2.4-7.2 1.6-1.8 3.7-2.8 6.2-2.8 1.3.2 2.6.5 3.8 1.1zm1.1 7.2c-.1-1.3-.4-2.4-.9-3.2-.8-1.5-2.2-2.2-4.2-2.2-1.4 0-2.6.5-3.5 1.5-.9 1-1.5 2.3-1.5 3.9h10.1zM281.7 402.8h4.9l7.2 21.2 7.2-21.2h4.8v25.1h-3.2v-21.1l-7.2 21.2H292l-7.2-21.2v.8c0 .6 0 1.6.1 2.8s.1 2.2.1 2.8V428h-3.2v-25.2zM310.3 402.8h3.1v3.5h-3.1v-3.5zm0 6.9h3.1v18.2h-3.1v-18.2zM317.6 409.6h2.9v2.6c.9-1.1 1.8-1.8 2.8-2.3 1-.5 2-.7 3.2-.7 2.6 0 4.4.9 5.3 2.7.5 1 .8 2.4.8 4.3v11.7h-3.1v-11.5c0-1.1-.2-2-.5-2.7-.5-1.1-1.5-1.7-3-1.7-.7 0-1.3.1-1.8.2-.8.3-1.6.8-2.2 1.5-.5.6-.8 1.2-1 1.9-.2.6-.2 1.6-.2 2.8v9.6h-3.1v-18.4zM347.9 410.1c1.2.6 2.1 1.4 2.8 2.4.6.9 1 2 1.2 3.2.2.8.3 2.2.3 4h-13.3c.1 1.9.5 3.4 1.3 4.5s2.1 1.7 3.8 1.7c1.6 0 2.9-.5 3.8-1.6.5-.6.9-1.3 1.1-2.1h3c-.1.7-.3 1.4-.8 2.2-.5.8-1 1.5-1.5 2-.9.9-2.1 1.5-3.4 1.8-.7.2-1.6.3-2.5.3-2.3 0-4.2-.8-5.8-2.5-1.6-1.7-2.4-4-2.4-7 0-2.9.8-5.3 2.4-7.2 1.6-1.8 3.7-2.8 6.2-2.8 1.4.2 2.6.5 3.8 1.1zm1.1 7.2c-.1-1.3-.4-2.4-.9-3.2-.8-1.5-2.2-2.2-4.2-2.2-1.4 0-2.6.5-3.5 1.5-.9 1-1.5 2.3-1.5 3.9H349zM357.4 422.2c.1 1 .4 1.8.8 2.4.8 1 2.2 1.5 4.1 1.5 1.2 0 2.2-.2 3.1-.7.9-.5 1.3-1.3 1.3-2.3 0-.8-.4-1.4-1.1-1.8-.5-.2-1.3-.5-2.7-.9l-2.5-.6c-1.6-.4-2.8-.8-3.5-1.3-1.3-.8-2-2-2-3.5 0-1.7.6-3.1 1.9-4.2 1.3-1.1 3-1.6 5.1-1.6 2.8 0 4.8.8 6 2.4.8 1 1.1 2.1 1.1 3.3h-2.9c-.1-.7-.3-1.3-.8-1.9-.7-.8-2-1.2-3.8-1.2-1.2 0-2.1.2-2.7.7s-.9 1-.9 1.8.4 1.4 1.2 1.9c.5.3 1.1.5 2.1.8l2.1.5c2.3.5 3.8 1.1 4.5 1.6 1.2.8 1.8 2 1.8 3.7 0 1.6-.6 3-1.9 4.2-1.3 1.2-3.2 1.8-5.7 1.8-2.8 0-4.7-.6-5.9-1.9-1.1-1.2-1.8-2.8-1.8-4.6h3.1zM373.6 416.6h8.6v3.2h-8.6v-3.2zM400.6 402.8v3h-8.5v22.1h-3.4v-22.1h-8.5v-3h20.4zM409.8 410.1c1.2.6 2.1 1.4 2.8 2.4.6.9 1 2 1.2 3.2.2.8.3 2.2.3 4h-13.3c.1 1.9.5 3.4 1.3 4.5s2.1 1.7 3.8 1.7c1.6 0 2.9-.5 3.8-1.6.5-.6.9-1.3 1.1-2.1h3c-.1.7-.3 1.4-.8 2.2-.5.8-1 1.5-1.5 2-.9.9-2.1 1.5-3.4 1.8-.7.2-1.6.3-2.5.3-2.3 0-4.2-.8-5.8-2.5-1.6-1.7-2.4-4-2.4-7 0-2.9.8-5.3 2.4-7.2 1.6-1.8 3.7-2.8 6.2-2.8 1.3.2 2.6.5 3.8 1.1zm1.1 7.2c-.1-1.3-.4-2.4-.9-3.2-.8-1.5-2.2-2.2-4.2-2.2-1.4 0-2.6.5-3.5 1.5-.9 1-1.5 2.3-1.5 3.9h10.1zM417.5 402.8h3.1v25.1h-3.1v-25.1zM436.2 410.1c1.2.6 2.1 1.4 2.8 2.4.6.9 1 2 1.2 3.2.2.8.3 2.2.3 4h-13.3c.1 1.9.5 3.4 1.3 4.5s2.1 1.7 3.8 1.7c1.6 0 2.9-.5 3.8-1.6.5-.6.9-1.3 1.1-2.1h3c-.1.7-.3 1.4-.8 2.2-.5.8-1 1.5-1.5 2-.9.9-2.1 1.5-3.4 1.8-.7.2-1.6.3-2.5.3-2.3 0-4.2-.8-5.8-2.5-1.6-1.7-2.4-4-2.4-7 0-2.9.8-5.3 2.4-7.2 1.6-1.8 3.7-2.8 6.2-2.8 1.3.2 2.5.5 3.8 1.1zm1.1 7.2c-.1-1.3-.4-2.4-.9-3.2-.8-1.5-2.2-2.2-4.2-2.2-1.4 0-2.6.5-3.5 1.5-.9 1-1.5 2.3-1.5 3.9h10.1zM456.1 410.6c1.3 1 2.1 2.7 2.3 5.2h-3c-.2-1.1-.6-2.1-1.2-2.8s-1.7-1.1-3.1-1.1c-2 0-3.4 1-4.2 2.9-.5 1.2-.8 2.8-.8 4.6 0 1.8.4 3.4 1.2 4.6.8 1.3 2 1.9 3.7 1.9 1.3 0 2.3-.4 3-1.2.7-.8 1.3-1.8 1.5-3.2h3c-.3 2.4-1.2 4.2-2.6 5.3s-3.1 1.7-5.2 1.7c-2.4 0-4.3-.9-5.7-2.6-1.4-1.7-2.1-3.9-2.1-6.6 0-3.2.8-5.7 2.3-7.5 1.6-1.8 3.5-2.7 6-2.7 1.9 0 3.6.5 4.9 1.5zM474.8 411.4c1.6 1.6 2.4 3.9 2.4 6.9 0 2.9-.7 5.4-2.1 7.3-1.4 1.9-3.6 2.9-6.6 2.9-2.5 0-4.5-.9-6-2.6-1.5-1.7-2.2-4-2.2-6.9 0-3.1.8-5.5 2.3-7.3s3.6-2.7 6.2-2.7c2.4.1 4.4.8 6 2.4zm-1.9 12.2c.7-1.5 1.1-3.3 1.1-5.1 0-1.7-.3-3.1-.8-4.2-.9-1.7-2.3-2.5-4.4-2.5-1.9 0-3.2.7-4.1 2.2s-1.3 3.2-1.3 5.2c0 1.9.4 3.6 1.3 4.9s2.2 1.9 4 1.9c2.1-.1 3.5-.9 4.2-2.4zM480.6 409.6h3v2.6c.7-.9 1.4-1.6 2-2 1-.7 2.2-1 3.5-1 1.5 0 2.6.4 3.5 1.1.5.4 1 1 1.4 1.8.7-1 1.5-1.7 2.4-2.2.9-.5 2-.7 3.1-.7 2.5 0 4.1.9 5 2.7.5 1 .7 2.2.7 3.9V428H502v-12.7c0-1.2-.3-2.1-.9-2.5-.6-.5-1.4-.7-2.2-.7-1.2 0-2.2.4-3.1 1.2-.9.8-1.3 2.2-1.3 4.1V428h-3.1v-11.9c0-1.2-.1-2.1-.4-2.7-.5-.9-1.3-1.3-2.6-1.3-1.2 0-2.2.5-3.2 1.4-1 .9-1.4 2.5-1.4 4.9v9.7h-3.1v-18.5zM409.7 402.2l-4.6 4.9h-2.4l3.1-4.9h3.9zM436 402.2l-4.6 4.9H429l3.1-4.9h3.9z" class="st1"/><path d="M316.1 160.6 186.5 290.2V160.6zM445.7 160.6v129.6H316.1V160.6l64.8 64.8zM510.5 290.2v-64.8h-64.8l64.8-64.8H640z" class="st2"/></svg>